<?xml version="1.0" encoding="UTF-8" standalone="no"?>
<svg
   xmlns:dc="http://purl.org/dc/elements/1.1/"
   xmlns:cc="http://creativecommons.org/ns#"
   xmlns:rdf="http://www.w3.org/1999/02/22-rdf-syntax-ns#"
   xmlns:svg="http://www.w3.org/2000/svg"
   xmlns="http://www.w3.org/2000/svg"
   xmlns:sodipodi="http://sodipodi.sourceforge.net/DTD/sodipodi-0.dtd"
   xmlns:inkscape="http://www.inkscape.org/namespaces/inkscape"
   width="515.99866"
   height="241.81818"
   viewBox="0 0 2837.9926 1330"
   fill="none"
   version="1.1"
   id="svg473"
   sodipodi:docname="blackhole.svg"
   inkscape:version="1.0.1 (3bc2e813f5, 2020-09-07)">
  <sodipodi:namedview
     pagecolor="#ffffff"
     bordercolor="#666666"
     borderopacity="1"
     objecttolerance="10"
     gridtolerance="10"
     guidetolerance="10"
     inkscape:pageopacity="0"
     inkscape:pageshadow="2"
     inkscape:window-width="1280"
     inkscape:window-height="773"
     id="namedview85"
     showgrid="false"
     inkscape:zoom="1.2381992"
     inkscape:cx="202.71374"
     inkscape:cy="94.999999"
     inkscape:window-x="0"
     inkscape:window-y="27"
     inkscape:window-maximized="0"
     inkscape:current-layer="svg473"
     scale-x="5.5"
     fit-margin-top="0"
     fit-margin-left="0"
     fit-margin-right="0"
     fit-margin-bottom="0" />
  <metadata
     id="metadata477">
    <rdf:RDF>
      <cc:Work
         rdf:about="">
        <dc:format>image/svg+xml</dc:format>
        <dc:type
           rdf:resource="http://purl.org/dc/dcmitype/StillImage" />
        <dc:title></dc:title>
      </cc:Work>
    </rdf:RDF>
  </metadata>
  <g
     clip-path="url(#clip0)"
     id="g396"
     transform="translate(-501.00377,-355)">
    <path
       d="m 1707.87,865.01 3.54,3.54 z m -86.26,196.25 3.41,3.66 z M 1920,772 a 304.76,304.76 0 0 0 -215.67,89.48 l 7.08,7.07 A 294.73,294.73 0 0 1 1920,782 Z m -215.67,89.48 c -48.98,49.06 -77.96,116.26 -85.8,184.22 l 9.94,1.15 c 7.61,-66.03 35.75,-131.04 82.94,-178.3 z m -85.8,184.22 a 8.62,8.62 0 0 1 -1.14,2.91 c -0.77,1.39 -1.89,3 -3.31,4.76 a 106.17,106.17 0 0 1 -10.58,11 202.73,202.73 0 0 1 -17.26,14.24 l 5.55,8.33 c 1.77,-1.18 10.27,-7.64 18.49,-15.22 a 117.9,117.9 0 0 0 11.59,-12.08 45.14,45.14 0 0 0 4.27,-6.18 18.46,18.46 0 0 0 2.33,-6.61 z m -32.29,32.91 a 9.2,9.2 0 0 0 -1.67,1.38 c -0.27,0.3 -0.81,0.93 -1.16,1.88 a 5.16,5.16 0 0 0 3.1,6.64 c 0.6,0.23 1.14,0.31 1.45,0.34 0.62,0.07 1.23,0.05 1.62,0.03 0.8,-0.04 1.88,-0.16 2.65,-0.24 0.89,-0.08 1.65,-0.14 2.27,-0.14 v -10 c -1.13,0 -2.31,0.1 -3.24,0.19 -1.05,0.1 -1.69,0.18 -2.2,0.2 -0.26,0.02 -0.21,0 0,0.02 a 4.75,4.75 0 0 1 3.31,2.19 c 0.97,1.57 0.8,3.2 0.44,4.2 -0.31,0.83 -0.76,1.33 -0.88,1.47 -0.28,0.3 -0.44,0.37 -0.14,0.17 z m 8.26,9.89 c 1.19,0 2.18,-0.38 2.65,-0.58 0.59,-0.24 1.15,-0.55 1.66,-0.85 1.01,-0.6 2.15,-1.39 3.31,-2.26 2.35,-1.76 5.19,-4.1 8.05,-6.56 a 550.45,550.45 0 0 0 14.85,-13.33 l -6.81,-7.33 a 537.96,537.96 0 0 1 -14.55,13.07 157.41,157.41 0 0 1 -7.52,6.14 31.09,31.09 0 0 1 -2.75,1.85 l -0.1,0.05 c 0,0 0.09,-0.04 0.25,-0.08 0.14,-0.04 0.49,-0.12 0.96,-0.12 z m 34,-31.59 v -10.63 h -10 v 10.63 z m -3.48,8.01 a 10.9,10.9 0 0 0 3.48,-8.01 h -10 c 0,0.29 -0.11,0.52 -0.29,0.68 z"
       fill="#55b1eb"
       id="path331" />
    <path
       d="m 1707.87,865.01 3.54,3.54 z m -86.26,196.25 3.41,3.66 z M 1920,772 a 304.76,304.76 0 0 0 -215.67,89.48 l 7.08,7.07 A 294.73,294.73 0 0 1 1920,782 Z m -215.67,89.48 c -48.98,49.06 -77.96,116.26 -85.8,184.22 l 9.94,1.15 c 7.61,-66.03 35.75,-131.04 82.94,-178.3 z m -85.8,184.22 a 8.62,8.62 0 0 1 -1.14,2.91 c -0.77,1.39 -1.89,3 -3.31,4.76 a 106.17,106.17 0 0 1 -10.58,11 202.73,202.73 0 0 1 -17.26,14.24 l 5.55,8.33 c 1.77,-1.18 10.27,-7.64 18.49,-15.22 a 117.9,117.9 0 0 0 11.59,-12.08 45.14,45.14 0 0 0 4.27,-6.18 18.46,18.46 0 0 0 2.33,-6.61 z m -32.29,32.91 a 9.2,9.2 0 0 0 -1.67,1.38 c -0.27,0.3 -0.81,0.93 -1.16,1.88 a 5.16,5.16 0 0 0 3.1,6.64 c 0.6,0.23 1.14,0.31 1.45,0.34 0.62,0.07 1.23,0.05 1.62,0.03 0.8,-0.04 1.88,-0.16 2.65,-0.24 0.89,-0.08 1.65,-0.14 2.27,-0.14 v -10 c -1.13,0 -2.31,0.1 -3.24,0.19 -1.05,0.1 -1.69,0.18 -2.2,0.2 -0.26,0.02 -0.21,0 0,0.02 a 4.75,4.75 0 0 1 3.31,2.19 c 0.97,1.57 0.8,3.2 0.44,4.2 -0.31,0.83 -0.76,1.33 -0.88,1.47 -0.28,0.3 -0.44,0.37 -0.14,0.17 z m 8.26,9.89 c 1.19,0 2.18,-0.38 2.65,-0.58 0.59,-0.24 1.15,-0.55 1.66,-0.85 1.01,-0.6 2.15,-1.39 3.31,-2.26 2.35,-1.76 5.19,-4.1 8.05,-6.56 a 550.45,550.45 0 0 0 14.85,-13.33 l -6.81,-7.33 a 537.96,537.96 0 0 1 -14.55,13.07 157.41,157.41 0 0 1 -7.52,6.14 31.09,31.09 0 0 1 -2.75,1.85 l -0.1,0.05 c 0,0 0.09,-0.04 0.25,-0.08 0.14,-0.04 0.49,-0.12 0.96,-0.12 z m 34,-31.59 v -10.63 h -10 v 10.63 z m -3.48,8.01 a 10.9,10.9 0 0 0 3.48,-8.01 h -10 c 0,0.29 -0.11,0.52 -0.29,0.68 z"
       fill="#ffdfa9"
       id="path333" />
    <path
       d="m 1920,701 c -101.58,0 -199,39.98 -270.82,111.15 C 1577.35,883.32 1539,978 1508,1017 c -31,39 -174.87,44.47 66,71.73 185.55,21 285.55,20.77 346,20.77"
       stroke="#55b1eb"
       stroke-width="8"
       id="path335" />
    <path
       d="m 1920,701 c -101.58,0 -199,39.98 -270.82,111.15 C 1577.35,883.32 1539,978 1508,1017 c -31,39 -174.87,44.47 66,71.73 185.55,21 285.55,20.77 346,20.77"
       stroke="#ffdfa9"
       stroke-opacity="0.8"
       stroke-width="8"
       id="path337" />
    <path
       d="m 1920,673 c -112.12,0 -219.64,43.36 -298.92,120.54 -79.27,77.18 -114.08,176.96 -149.68,213.95 -35.6,36.99 -201.35,56.17 64.5,85.74 204.8,22.77 317.38,22.77 384.1,22.77"
       stroke="#55b1eb"
       stroke-width="7"
       id="path339" />
    <path
       d="m 1920,673 c -112.12,0 -219.64,43.36 -298.92,120.54 -79.27,77.18 -114.08,176.96 -149.68,213.95 -35.6,36.99 -201.35,56.17 64.5,85.74 204.8,22.77 317.38,22.77 384.1,22.77"
       stroke="#ffdfa9"
       stroke-opacity="0.6"
       stroke-width="7"
       id="path341" />
    <path
       d="m 1920,643 c -121.21,0 -237.46,46.88 -323.17,130.34 C 1511.12,856.79 1479,944 1436.5,989 c -42.5,45 -318.5,72 51.5,110 221.41,24.62 359.87,23 432,23"
       stroke="#55b1eb"
       stroke-width="6"
       id="path343" />
    <path
       d="m 1920,643 c -121.21,0 -237.46,46.88 -323.17,130.34 C 1511.12,856.79 1479,944 1436.5,989 c -42.5,45 -318.5,72 51.5,110 221.41,24.62 359.87,23 432,23"
       stroke="#ffdfa9"
       stroke-opacity="0.4"
       stroke-width="6"
       id="path345" />
    <path
       d="m 1920,598 c -133.65,0 -261.82,51.97 -356.33,144.49 C 1469.17,834.99 1419,913 1406.5,929.5 1394,946 1357,988.5 1263,1013 c -105,27.37 -261,66.35 187,94 243,15 390.47,22 470,22"
       stroke="#55b1eb"
       stroke-width="5"
       id="path347" />
    <path
       d="m 1920,598 c -133.65,0 -261.82,51.97 -356.33,144.49 C 1469.17,834.99 1419,913 1406.5,929.5 1394,946 1357,988.5 1263,1013 c -105,27.37 -261,66.35 187,94 243,15 390.47,22 470,22"
       stroke="#ffdfa9"
       stroke-opacity="0.4"
       stroke-width="5"
       id="path349" />
    <path
       d="m 1920,542 c -153.32,0 -300.36,58.24 -408.77,161.9 -108.42,103.66 -84.97,94.4 -171.73,184.6 -75.13,78.11 -225.5,106.5 -329,130 -103.5,23.5 -12.78,65.07 370.32,93.85 278.49,20.92 447.94,24.65 539.18,24.65"
       stroke="#55b1eb"
       stroke-width="4"
       id="path351" />
    <path
       d="m 1920,542 c -153.32,0 -300.36,58.24 -408.77,161.9 -108.42,103.66 -84.97,94.4 -171.73,184.6 -75.13,78.11 -225.5,106.5 -329,130 -103.5,23.5 -12.78,65.07 370.32,93.85 278.49,20.92 447.94,24.65 539.18,24.65"
       stroke="#ffdfa9"
       stroke-opacity="0.2"
       stroke-width="4"
       id="path353" />
    <path
       d="m 1920,474 c -174.94,0 -342.71,65.97 -466.41,183.4 -123.7,117.42 -78.6,98.42 -177.59,200.6 -85.72,88.48 -268.91,118.38 -387,145 -67.14,15.13 -94.82,39.05 0,64 71.96,18.93 227.21,39.01 415.8,53.08 317.76,23.69 511.09,27.92 615.2,27.92"
       stroke="#55b1eb"
       stroke-width="3"
       id="path355" />
    <path
       d="m 1920,474 c -174.94,0 -342.71,65.97 -466.41,183.4 -123.7,117.42 -78.6,98.42 -177.59,200.6 -85.72,88.48 -268.91,118.38 -387,145 -67.14,15.13 -94.82,39.05 0,64 71.96,18.93 227.21,39.01 415.8,53.08 317.76,23.69 511.09,27.92 615.2,27.92"
       stroke="#ffdfa9"
       stroke-opacity="0.2"
       stroke-width="3"
       id="path357" />
    <path
       d="m 1920,356 c -225.74,0 -442.23,81.43 -601.86,226.39 -159.62,144.95 -191.99,248.89 -334.94,307.1 -142.95,58.23 -355.3,85.75 -439.42,113.27 -50.96,16.67 -78.71,59.46 58.66,92.09 89.43,21.24 287.69,41.84 523.71,58.68 410.02,29.25 659.51,34.47 793.85,34.47"
       stroke="#55b1eb"
       stroke-width="2"
       id="path359" />
    <mask
       id="a"
       maskUnits="userSpaceOnUse"
       x="623"
       y="1254"
       width="1298"
       height="436">
      <path
         d="m 1920,1261 c -176.81,0 -348.03,-2.28 -510.62,-6.56 C -427,1254.44 1471,1679 1920,1690 Z"
         fill="#c4c4c4"
         id="path361" />
    </mask>
    <g
       mask="url(#a)"
       id="g394">
      <path
         d="m 1920,1359.5 a 299.76,299.76 0 0 1 -212.13,-88.01 300.76,300.76 0 0 1 -85.89,-177.99 C 1620.67,1082.1 1599,1065 1587.5,1057"
         stroke="#55b1eb"
         stroke-width="10"
         id="path364" />
      <path
         d="m 1920,1359.5 a 299.76,299.76 0 0 1 -212.13,-88.01 300.76,300.76 0 0 1 -85.89,-177.99 C 1620.67,1082.1 1599,1065 1587.5,1057"
         stroke="#ffdfa9"
         stroke-width="10"
         id="path366" />
      <path
         d="m 1920,1605 c -82.46,0 -166.88,-20.03 -238.41,-63.04 -43.41,-26.11 -87.19,-59.88 -122.59,-99.96 -45.15,-48.58 -72.01,-108.99 -92.07,-170 -18.22,-55.44 -27.52,-114.25 -30.5,-173.27 -2.19,-21.46 -38.28,-53.67 -57.43,-68.73"
         stroke="#55b1eb"
         stroke-width="4"
         id="path368" />
      <path
         d="m 1920,1605 c -82.46,0 -166.88,-20.03 -238.41,-63.04 -43.41,-26.11 -87.19,-59.88 -122.59,-99.96 -45.15,-48.58 -72.01,-108.99 -92.07,-170 -18.22,-55.44 -27.52,-114.25 -30.5,-173.27 -2.19,-21.46 -38.28,-53.67 -57.43,-68.73"
         stroke="#ffdfa9"
         stroke-opacity="0.2"
         stroke-width="4"
         id="path370" />
      <path
         d="m 1920,1648 c -89.63,0 -181.38,-22.78 -259.12,-71.71 -47.19,-29.69 -94.77,-68.09 -133.24,-113.68 -49.07,-55.26 -78.27,-123.97 -100.07,-193.36 -19.8,-63.05 -29.91,-129.95 -33.15,-197.07 -2.38,-24.41 -41.6,-61.05 -62.42,-78.18"
         stroke="#55b1eb"
         stroke-width="3"
         id="path372" />
      <path
         d="m 1920,1648 c -89.63,0 -181.38,-22.78 -259.12,-71.71 -47.19,-29.69 -94.77,-68.09 -133.24,-113.68 -49.07,-55.26 -78.27,-123.97 -100.07,-193.36 -19.8,-63.05 -29.91,-129.95 -33.15,-197.07 -2.38,-24.41 -41.6,-61.05 -62.42,-78.18"
         stroke="#ffffff"
         stroke-opacity="0.2"
         stroke-width="3"
         id="path374" />
      <path
         d="m 1920,1684 c -96.34,0 -194.95,-23.2 -278.51,-73.02 -50.72,-30.24 -101.86,-69.35 -143.21,-115.78 -52.75,-56.26 -84.13,-126.24 -107.56,-196.9 -21.28,-64.21 -32.14,-132.33 -35.63,-200.69 -2.55,-24.86 -44.71,-62.16 -67.09,-79.61"
         stroke="#55b1eb"
         stroke-width="2"
         id="path376" />
      <path
         d="m 1920,1562 c -74.23,0 -150.22,-17.31 -214.61,-54.49 -39.08,-22.57 -78.49,-51.75 -110.36,-86.4 -40.64,-41.99 -64.82,-94.21 -82.87,-146.94 -16.41,-47.91 -24.78,-98.75 -27.46,-149.76 -1.97,-18.55 -34.46,-46.39 -51.7,-59.41"
         stroke="#55b1eb"
         stroke-width="5"
         id="path378" />
      <path
         d="m 1920,1562 c -74.23,0 -150.22,-17.31 -214.61,-54.49 -39.08,-22.57 -78.49,-51.75 -110.36,-86.4 -40.64,-41.99 -64.82,-94.21 -82.87,-146.94 -16.41,-47.91 -24.78,-98.75 -27.46,-149.76 -1.97,-18.55 -34.46,-46.39 -51.7,-59.41"
         stroke="#ffdfa9"
         stroke-opacity="0.4"
         stroke-width="5"
         id="path380" />
      <path
         d="m 1920,1521 c -68.59,0 -138.81,-15.36 -198.31,-48.35 -36.11,-20.03 -72.53,-45.92 -101.97,-76.66 -37.55,-37.26 -59.9,-83.6 -76.58,-130.39 -15.15,-42.51 -22.89,-87.62 -25.37,-132.88 -1.82,-16.46 -31.84,-41.17 -47.77,-52.72"
         stroke="#55b1eb"
         stroke-width="6"
         id="path382" />
      <path
         d="m 1920,1521 c -68.59,0 -138.81,-15.36 -198.31,-48.35 -36.11,-20.03 -72.53,-45.92 -101.97,-76.66 -37.55,-37.26 -59.9,-83.6 -76.58,-130.39 -15.15,-42.51 -22.89,-87.62 -25.37,-132.88 -1.82,-16.46 -31.84,-41.17 -47.77,-52.72"
         stroke="#ffdfa9"
         stroke-opacity="0.4"
         stroke-width="6"
         id="path384" />
      <path
         d="m 1920,1488 c -63.26,0 -128.01,-13.62 -182.88,-42.87 -33.3,-17.75 -66.89,-40.71 -94.04,-67.97 -34.64,-33.03 -55.24,-74.11 -70.63,-115.6 -13.97,-37.7 -21.11,-77.69 -23.39,-117.82 -1.68,-14.59 -29.37,-36.5 -44.06,-46.74"
         stroke="#55b1eb"
         stroke-width="7"
         id="path386" />
      <path
         d="m 1920,1488 c -63.26,0 -128.01,-13.62 -182.88,-42.87 -33.3,-17.75 -66.89,-40.71 -94.04,-67.97 -34.64,-33.03 -55.24,-74.11 -70.63,-115.6 -13.97,-37.7 -21.11,-77.69 -23.39,-117.82 -1.68,-14.59 -29.37,-36.5 -44.06,-46.74"
         stroke="#ffdfa9"
         stroke-opacity="0.6"
         stroke-width="7"
         id="path388" />
      <path
         d="m 1920,1465 c -60.51,0 -122.46,-13.62 -174.95,-42.87 -31.86,-17.75 -63.99,-40.71 -89.96,-67.97 -33.13,-33.03 -52.85,-74.11 -67.56,-115.6 -13.37,-37.7 -20.2,-77.69 -22.38,-117.82 -1.61,-14.59 -28.09,-36.5 -42.15,-46.74"
         stroke="#55b1eb"
         stroke-width="8"
         id="path390" />
      <path
         d="m 1920,1465 c -60.51,0 -122.46,-13.62 -174.95,-42.87 -31.86,-17.75 -63.99,-40.71 -89.96,-67.97 -33.13,-33.03 -52.85,-74.11 -67.56,-115.6 -13.37,-37.7 -20.2,-77.69 -22.38,-117.82 -1.61,-14.59 -28.09,-36.5 -42.15,-46.74"
         stroke="#ffdfa9"
         stroke-opacity="0.8"
         stroke-width="8"
         id="path392" />
    </g>
  </g>
  <g
     clip-path="url(#clip1)"
     id="g463"
     transform="translate(-501.00377,-355)">
    <path
       d="m 2132.13,865.01 -3.54,3.54 z m 86.26,196.25 -3.41,3.66 z M 1920,772 a 304.76,304.76 0 0 1 215.67,89.48 l -7.08,7.07 A 294.73,294.73 0 0 0 1920,782 Z m 215.67,89.48 c 48.98,49.06 77.96,116.26 85.8,184.22 l -9.94,1.15 c -7.61,-66.03 -35.75,-131.04 -82.94,-178.3 z m 85.8,184.22 c 0.06,0.52 0.34,1.47 1.14,2.91 0.77,1.39 1.89,3 3.31,4.76 2.84,3.53 6.62,7.36 10.58,11 a 202.73,202.73 0 0 0 17.26,14.24 l -5.55,8.33 c -1.77,-1.18 -10.27,-7.64 -18.49,-15.22 a 117.9,117.9 0 0 1 -11.59,-12.08 45.14,45.14 0 0 1 -4.27,-6.18 18.46,18.46 0 0 1 -2.33,-6.61 z m 32.29,32.91 c 0.45,0.3 1.11,0.77 1.67,1.38 0.27,0.3 0.81,0.93 1.16,1.88 a 5.16,5.16 0 0 1 -3.1,6.64 c -0.6,0.23 -1.14,0.31 -1.45,0.34 -0.62,0.07 -1.23,0.05 -1.62,0.03 -0.8,-0.04 -1.88,-0.16 -2.65,-0.24 -0.89,-0.08 -1.65,-0.14 -2.27,-0.14 v -10 c 1.13,0 2.31,0.1 3.24,0.19 1.05,0.1 1.69,0.18 2.2,0.2 0.26,0.02 0.21,0 0,0.02 a 4.75,4.75 0 0 0 -3.31,2.19 4.88,4.88 0 0 0 -0.44,4.2 c 0.31,0.83 0.76,1.33 0.88,1.47 0.28,0.3 0.44,0.37 0.14,0.17 z m -8.26,9.89 a 6.86,6.86 0 0 1 -2.65,-0.58 c -0.59,-0.24 -1.15,-0.55 -1.66,-0.85 a 38.61,38.61 0 0 1 -3.31,-2.26 c -2.35,-1.76 -5.19,-4.1 -8.05,-6.56 a 550.45,550.45 0 0 1 -14.85,-13.33 l 6.81,-7.33 c 2.97,2.76 8.96,8.27 14.55,13.07 2.81,2.41 5.45,4.59 7.52,6.14 a 31.09,31.09 0 0 0 2.75,1.85 l 0.1,0.05 c 0,0 -0.09,-0.04 -0.25,-0.08 a 3.65,3.65 0 0 0 -0.96,-0.12 z m -34,-31.59 v -10.63 h 10 v 10.63 z m 3.48,8.01 a 10.9,10.9 0 0 1 -3.48,-8.01 h 10 c 0,0.29 0.11,0.52 0.29,0.68 z"
       fill="#55b1eb"
       id="path398" />
    <path
       d="m 2132.13,865.01 -3.54,3.54 z m 86.26,196.25 -3.41,3.66 z M 1920,772 a 304.76,304.76 0 0 1 215.67,89.48 l -7.08,7.07 A 294.73,294.73 0 0 0 1920,782 Z m 215.67,89.48 c 48.98,49.06 77.96,116.26 85.8,184.22 l -9.94,1.15 c -7.61,-66.03 -35.75,-131.04 -82.94,-178.3 z m 85.8,184.22 c 0.06,0.52 0.34,1.47 1.14,2.91 0.77,1.39 1.89,3 3.31,4.76 2.84,3.53 6.62,7.36 10.58,11 a 202.73,202.73 0 0 0 17.26,14.24 l -5.55,8.33 c -1.77,-1.18 -10.27,-7.64 -18.49,-15.22 a 117.9,117.9 0 0 1 -11.59,-12.08 45.14,45.14 0 0 1 -4.27,-6.18 18.46,18.46 0 0 1 -2.33,-6.61 z m 32.29,32.91 c 0.45,0.3 1.11,0.77 1.67,1.38 0.27,0.3 0.81,0.93 1.16,1.88 a 5.16,5.16 0 0 1 -3.1,6.64 c -0.6,0.23 -1.14,0.31 -1.45,0.34 -0.62,0.07 -1.23,0.05 -1.62,0.03 -0.8,-0.04 -1.88,-0.16 -2.65,-0.24 -0.89,-0.08 -1.65,-0.14 -2.27,-0.14 v -10 c 1.13,0 2.31,0.1 3.24,0.19 1.05,0.1 1.69,0.18 2.2,0.2 0.26,0.02 0.21,0 0,0.02 a 4.75,4.75 0 0 0 -3.31,2.19 4.88,4.88 0 0 0 -0.44,4.2 c 0.31,0.83 0.76,1.33 0.88,1.47 0.28,0.3 0.44,0.37 0.14,0.17 z m -8.26,9.89 a 6.86,6.86 0 0 1 -2.65,-0.58 c -0.59,-0.24 -1.15,-0.55 -1.66,-0.85 a 38.61,38.61 0 0 1 -3.31,-2.26 c -2.35,-1.76 -5.19,-4.1 -8.05,-6.56 a 550.45,550.45 0 0 1 -14.85,-13.33 l 6.81,-7.33 c 2.97,2.76 8.96,8.27 14.55,13.07 2.81,2.41 5.45,4.59 7.52,6.14 a 31.09,31.09 0 0 0 2.75,1.85 l 0.1,0.05 c 0,0 -0.09,-0.04 -0.25,-0.08 a 3.65,3.65 0 0 0 -0.96,-0.12 z m -34,-31.59 v -10.63 h 10 v 10.63 z m 3.48,8.01 a 10.9,10.9 0 0 1 -3.48,-8.01 h 10 c 0,0.29 0.11,0.52 0.29,0.68 z"
       fill="#ffdfa9"
       id="path400" />
    <path
       d="m 1920,701 c 101.58,0 199,39.98 270.82,111.15 C 2262.65,883.32 2301,978 2332,1017 c 31,39 174.87,44.47 -66,71.73 -185.55,21 -285.55,20.77 -346,20.77"
       stroke="#55b1eb"
       stroke-width="8"
       id="path402" />
    <path
       d="m 1920,701 c 101.58,0 199,39.98 270.82,111.15 C 2262.65,883.32 2301,978 2332,1017 c 31,39 174.87,44.47 -66,71.73 -185.55,21 -285.55,20.77 -346,20.77"
       stroke="#ffdfa9"
       stroke-opacity="0.8"
       stroke-width="8"
       id="path404" />
    <path
       d="m 1920,673 c 112.12,0 219.64,43.36 298.92,120.54 79.27,77.18 114.08,176.96 149.68,213.95 35.6,36.99 201.35,56.17 -64.5,85.74 C 2099.3,1116 1986.72,1116 1920,1116"
       stroke="#55b1eb"
       stroke-width="7"
       id="path406" />
    <path
       d="m 1920,673 c 112.12,0 219.64,43.36 298.92,120.54 79.27,77.18 114.08,176.96 149.68,213.95 35.6,36.99 201.35,56.17 -64.5,85.74 C 2099.3,1116 1986.72,1116 1920,1116"
       stroke="#ffdfa9"
       stroke-opacity="0.6"
       stroke-width="7"
       id="path408" />
    <path
       d="m 1920,643 c 121.21,0 237.46,46.88 323.17,130.34 C 2328.88,856.79 2361,944 2403.5,989 c 42.5,45 318.5,72 -51.5,110 -221.41,24.62 -359.87,23 -432,23"
       stroke="#55b1eb"
       stroke-width="6"
       id="path410" />
    <path
       d="m 1920,643 c 121.21,0 237.46,46.88 323.17,130.34 C 2328.88,856.79 2361,944 2403.5,989 c 42.5,45 318.5,72 -51.5,110 -221.41,24.62 -359.87,23 -432,23"
       stroke="#ffdfa9"
       stroke-opacity="0.4"
       stroke-width="6"
       id="path412" />
    <path
       d="m 1920,598 c 133.65,0 261.82,51.97 356.33,144.49 94.5,92.5 144.67,170.51 157.17,187.01 12.5,16.5 49.5,59 143.5,83.5 105,27.37 261,66.35 -187,94 -243,15 -390.47,22 -470,22"
       stroke="#55b1eb"
       stroke-width="5"
       id="path414" />
    <path
       d="m 1920,598 c 133.65,0 261.82,51.97 356.33,144.49 94.5,92.5 144.67,170.51 157.17,187.01 12.5,16.5 49.5,59 143.5,83.5 105,27.37 261,66.35 -187,94 -243,15 -390.47,22 -470,22"
       stroke="#ffdfa9"
       stroke-opacity="0.4"
       stroke-width="5"
       id="path416" />
    <path
       d="m 1920,542 c 153.32,0 300.36,58.24 408.77,161.9 108.42,103.66 84.97,94.4 171.73,184.6 75.13,78.11 225.5,106.5 329,130 103.5,23.5 12.78,65.07 -370.32,93.85 C 2180.69,1133.27 2011.24,1137 1920,1137"
       stroke="#55b1eb"
       stroke-width="4"
       id="path418" />
    <path
       d="m 1920,542 c 153.32,0 300.36,58.24 408.77,161.9 108.42,103.66 84.97,94.4 171.73,184.6 75.13,78.11 225.5,106.5 329,130 103.5,23.5 12.78,65.07 -370.32,93.85 C 2180.69,1133.27 2011.24,1137 1920,1137"
       stroke="#ffdfa9"
       stroke-opacity="0.2"
       stroke-width="4"
       id="path420" />
    <path
       d="m 1920,474 c 174.94,0 342.71,65.97 466.41,183.4 123.7,117.42 78.6,98.42 177.59,200.6 85.72,88.48 268.91,118.38 387,145 67.14,15.13 94.82,39.05 0,64 -71.96,18.93 -227.21,39.01 -415.8,53.08 -317.76,23.69 -511.09,27.92 -615.2,27.92"
       stroke="#55b1eb"
       stroke-width="3"
       id="path422" />
    <path
       d="m 1920,474 c 174.94,0 342.71,65.97 466.41,183.4 123.7,117.42 78.6,98.42 177.59,200.6 85.72,88.48 268.91,118.38 387,145 67.14,15.13 94.82,39.05 0,64 -71.96,18.93 -227.21,39.01 -415.8,53.08 -317.76,23.69 -511.09,27.92 -615.2,27.92"
       stroke="#ffdfa9"
       stroke-opacity="0.2"
       stroke-width="3"
       id="path424" />
    <path
       d="m 1920,356 c 225.74,0 442.23,81.43 601.86,226.39 159.62,144.95 191.99,248.89 334.94,307.1 142.95,58.23 355.3,85.75 439.42,113.27 50.96,16.67 78.71,59.46 -58.66,92.09 -89.43,21.24 -287.69,41.84 -523.71,58.68 C 2303.83,1182.78 2054.34,1188 1920,1188"
       stroke="#55b1eb"
       stroke-width="2"
       id="path426" />
    <mask
       id="b"
       maskUnits="userSpaceOnUse"
       x="1919"
       y="1254"
       width="1298"
       height="436">
      <path
         d="m 1920,1261 c 176.81,0 348.03,-2.28 510.62,-6.56 C 4267,1254.44 2369,1679 1920,1690 Z"
         fill="#c4c4c4"
         id="path428" />
    </mask>
    <g
       mask="url(#b)"
       id="g461">
      <path
         d="m 1920,1359.5 a 299.76,299.76 0 0 0 212.13,-88.01 300.76,300.76 0 0 0 85.89,-177.99 c 1.31,-11.4 22.98,-28.5 34.48,-36.5"
         stroke="#55b1eb"
         stroke-width="10"
         id="path431" />
      <path
         d="m 1920,1359.5 a 299.76,299.76 0 0 0 212.13,-88.01 300.76,300.76 0 0 0 85.89,-177.99 c 1.31,-11.4 22.98,-28.5 34.48,-36.5"
         stroke="#ffdfa9"
         stroke-width="10"
         id="path433" />
      <path
         d="m 1920,1605 c 82.46,0 166.88,-20.03 238.41,-63.04 43.41,-26.11 87.19,-59.88 122.59,-99.96 45.15,-48.58 72.01,-108.99 92.07,-170 18.22,-55.44 27.52,-114.25 30.5,-173.27 2.19,-21.46 38.28,-53.67 57.43,-68.73"
         stroke="#55b1eb"
         stroke-width="4"
         id="path435" />
      <path
         d="m 1920,1605 c 82.46,0 166.88,-20.03 238.41,-63.04 43.41,-26.11 87.19,-59.88 122.59,-99.96 45.15,-48.58 72.01,-108.99 92.07,-170 18.22,-55.44 27.52,-114.25 30.5,-173.27 2.19,-21.46 38.28,-53.67 57.43,-68.73"
         stroke="#ffdfa9"
         stroke-opacity="0.2"
         stroke-width="4"
         id="path437" />
      <path
         d="m 1920,1648 c 89.63,0 181.38,-22.78 259.12,-71.71 47.19,-29.69 94.77,-68.09 133.24,-113.68 49.07,-55.26 78.27,-123.97 100.07,-193.36 19.8,-63.05 29.91,-129.95 33.15,-197.07 2.38,-24.41 41.6,-61.05 62.42,-78.18"
         stroke="#55b1eb"
         stroke-width="3"
         id="path439" />
      <path
         d="m 1920,1648 c 89.63,0 181.38,-22.78 259.12,-71.71 47.19,-29.69 94.77,-68.09 133.24,-113.68 49.07,-55.26 78.27,-123.97 100.07,-193.36 19.8,-63.05 29.91,-129.95 33.15,-197.07 2.38,-24.41 41.6,-61.05 62.42,-78.18"
         stroke="#ffffff"
         stroke-opacity="0.2"
         stroke-width="3"
         id="path441" />
      <path
         d="m 1920,1684 c 96.34,0 194.95,-23.2 278.51,-73.02 50.72,-30.24 101.86,-69.35 143.21,-115.78 52.75,-56.26 84.13,-126.24 107.56,-196.9 21.28,-64.21 32.14,-132.33 35.63,-200.69 2.55,-24.86 44.71,-62.16 67.09,-79.61"
         stroke="#55b1eb"
         stroke-width="2"
         id="path443" />
      <path
         d="m 1920,1562 c 74.23,0 150.22,-17.31 214.61,-54.49 39.08,-22.57 78.49,-51.75 110.36,-86.4 40.64,-41.99 64.82,-94.21 82.87,-146.94 16.41,-47.91 24.78,-98.75 27.46,-149.76 1.97,-18.55 34.46,-46.39 51.7,-59.41"
         stroke="#55b1eb"
         stroke-width="5"
         id="path445" />
      <path
         d="m 1920,1562 c 74.23,0 150.22,-17.31 214.61,-54.49 39.08,-22.57 78.49,-51.75 110.36,-86.4 40.64,-41.99 64.82,-94.21 82.87,-146.94 16.41,-47.91 24.78,-98.75 27.46,-149.76 1.97,-18.55 34.46,-46.39 51.7,-59.41"
         stroke="#ffdfa9"
         stroke-opacity="0.4"
         stroke-width="5"
         id="path447" />
      <path
         d="m 1920,1521 c 68.59,0 138.81,-15.36 198.31,-48.35 36.11,-20.03 72.53,-45.92 101.97,-76.66 37.55,-37.26 59.9,-83.6 76.58,-130.39 15.15,-42.51 22.89,-87.62 25.37,-132.88 1.82,-16.46 31.84,-41.17 47.77,-52.72"
         stroke="#55b1eb"
         stroke-width="6"
         id="path449" />
      <path
         d="m 1920,1521 c 68.59,0 138.81,-15.36 198.31,-48.35 36.11,-20.03 72.53,-45.92 101.97,-76.66 37.55,-37.26 59.9,-83.6 76.58,-130.39 15.15,-42.51 22.89,-87.62 25.37,-132.88 1.82,-16.46 31.84,-41.17 47.77,-52.72"
         stroke="#ffdfa9"
         stroke-opacity="0.4"
         stroke-width="6"
         id="path451" />
      <path
         d="m 1920,1488 c 63.26,0 128.01,-13.62 182.88,-42.87 33.31,-17.75 66.89,-40.71 94.04,-67.97 34.64,-33.03 55.24,-74.11 70.63,-115.6 13.97,-37.7 21.11,-77.69 23.39,-117.82 1.68,-14.59 29.37,-36.5 44.06,-46.74"
         stroke="#55b1eb"
         stroke-width="7"
         id="path453" />
      <path
         d="m 1920,1488 c 63.26,0 128.01,-13.62 182.88,-42.87 33.31,-17.75 66.89,-40.71 94.04,-67.97 34.64,-33.03 55.24,-74.11 70.63,-115.6 13.97,-37.7 21.11,-77.69 23.39,-117.82 1.68,-14.59 29.37,-36.5 44.06,-46.74"
         stroke="#ffdfa9"
         stroke-opacity="0.6"
         stroke-width="7"
         id="path455" />
      <path
         d="m 1920,1465 c 60.51,0 122.46,-13.62 174.95,-42.87 31.86,-17.75 63.99,-40.71 89.96,-67.97 33.13,-33.03 52.85,-74.11 67.56,-115.6 13.37,-37.7 20.2,-77.69 22.38,-117.82 1.61,-14.59 28.09,-36.5 42.15,-46.74"
         stroke="#55b1eb"
         stroke-width="8"
         id="path457" />
      <path
         d="m 1920,1465 c 60.51,0 122.46,-13.62 174.95,-42.87 31.86,-17.75 63.99,-40.71 89.96,-67.97 33.13,-33.03 52.85,-74.11 67.56,-115.6 13.37,-37.7 20.2,-77.69 22.38,-117.82 1.61,-14.59 28.09,-36.5 42.15,-46.74"
         stroke="#ffdfa9"
         stroke-opacity="0.8"
         stroke-width="8"
         id="path459" />
    </g>
  </g>
  <defs
     id="defs471">
    <clipPath
       id="clip0">
      <path
         d="M 0,0 H 1920 V 2160 H 0 Z"
         fill="#ffffff"
         id="path465" />
    </clipPath>
    <clipPath
       id="clip1">
      <path
         d="M 3840,0 H 1920 v 2160 h 1920 z"
         fill="#ffffff"
         id="path468" />
    </clipPath>
  </defs>
</svg>
